<svg width="34" height="30" viewBox="0 0 34 30" fill="none" xmlns="http://www.w3.org/2000/svg">
<g clip-path="url(#clip0_8_32)">
<path d="M25.9536 17.9589H14.4174L6.46197 24.4896V17.9589H3C1.89543 17.9589 1 17.0635 1 15.9589V2.50439C1 1.39983 1.89543 0.504395 3 0.504395H25.9536C27.0582 0.504395 27.9536 1.39983 27.9536 2.5044V15.9589C27.9536 17.0635 27.0582 17.9589 25.9536 17.9589Z" stroke="white" stroke-linecap="round" stroke-linejoin="round"/>
<path d="M19.5826 22.1147L27.538 28.6453V22.1147H31C32.1046 22.1147 33 21.2193 33 20.1147V4.66016" stroke="white" stroke-linecap="round" stroke-linejoin="round"/>
<path d="M7.35258 11.9969C8.50275 11.9969 9.43514 11.0645 9.43514 9.91435C9.43514 8.76418 8.50275 7.83179 7.35258 7.83179C6.20241 7.83179 5.27002 8.76418 5.27002 9.91435C5.27002 11.0645 6.20241 11.9969 7.35258 11.9969Z" stroke="white"/>
<path d="M14.4768 11.9969C15.627 11.9969 16.5594 11.0645 16.5594 9.91435C16.5594 8.76418 15.627 7.83179 14.4768 7.83179C13.3267 7.83179 12.3943 8.76418 12.3943 9.91435C12.3943 11.0645 13.3267 11.9969 14.4768 11.9969Z" stroke="white"/>
<path d="M21.6011 11.9969C22.7513 11.9969 23.6837 11.0645 23.6837 9.91435C23.6837 8.76418 22.7513 7.83179 21.6011 7.83179C20.451 7.83179 19.5186 8.76418 19.5186 9.91435C19.5186 11.0645 20.451 11.9969 21.6011 11.9969Z" stroke="white"/>
</g>
<defs>
<clipPath id="clip0_8_32">
<rect width="34" height="30" fill="white"/>
</clipPath>
</defs>
</svg>
