<svg width="32" height="33" viewBox="0 0 32 33" fill="none" xmlns="http://www.w3.org/2000/svg">
<circle cx="16" cy="16.5747" r="15.5" stroke="black"/>
<path d="M4 16.5747C4 9.94729 9.37258 4.57471 16 4.57471" stroke="black" stroke-linecap="round"/>
<path d="M28 16.5747C28 23.2021 22.6274 28.5747 16 28.5747" stroke="black" stroke-linecap="round"/>
<path d="M18.7891 17.7114H15.0977C15.3483 18.4178 15.7585 18.9601 16.3281 19.3384C16.9023 19.7121 17.5814 19.8989 18.3652 19.8989C19.026 19.8989 19.4886 19.8602 19.7529 19.7827V21.1089C19.443 21.2 18.9782 21.2456 18.3584 21.2456C17.137 21.2456 16.0889 20.9403 15.2139 20.3296C14.3389 19.7189 13.7601 18.8462 13.4775 17.7114H12.1035V16.7271H13.3135C13.2998 16.5356 13.293 16.342 13.293 16.146C13.293 15.9136 13.3021 15.7131 13.3203 15.5444H12.1035V14.5601H13.4775C13.7646 13.4299 14.3457 12.5617 15.2207 11.9556C16.0957 11.3449 17.1416 11.0396 18.3584 11.0396C18.9554 11.0396 19.4157 11.0897 19.7393 11.1899V12.5161C19.3792 12.4341 18.9235 12.3931 18.3721 12.3931C17.5928 12.3931 16.916 12.5799 16.3418 12.9536C15.7676 13.3228 15.3551 13.8582 15.1045 14.5601H18.7891V15.5444H14.8857C14.863 15.7586 14.8516 15.9591 14.8516 16.146C14.8516 16.3283 14.863 16.522 14.8857 16.7271H18.7891V17.7114Z" fill="black"/>
</svg>
