<svg width="32" height="34" viewBox="0 0 32 34" fill="none" xmlns="http://www.w3.org/2000/svg">
<path d="M1.21191 10.4741H30.788V25.6412H1.21191V10.4741Z" stroke="black" stroke-linejoin="round"/>
<path d="M4.18574 7.49463L1.21191 10.4739H30.788L27.8141 7.49463H4.18574Z" stroke="black" stroke-linejoin="round"/>
<rect x="4.86829" y="17.6785" width="6.60857" height="7.96278" stroke="black" stroke-linejoin="round"/>
<path d="M20.171 14.6602H16.0541V20.2243H20.171V14.6602Z" stroke="black" stroke-linejoin="round"/>
<path d="M23.3127 14.6602H27.4295" stroke="black" stroke-linecap="round"/>
<path d="M4.86829 14.6602L11.4769 14.6602" stroke="black" stroke-linecap="round"/>
<path d="M17.4354 7.25099C17.4354 3.56378 20.4245 0.574707 24.1117 0.574707C27.7989 0.574707 30.788 3.56378 30.788 7.25099C30.788 8.2623 30.5631 9.22109 30.1607 10.0801" stroke="black"/>
<path d="M1.21191 29.1079L30.788 29.1079" stroke="black" stroke-linecap="round" stroke-linejoin="round"/>
<path d="M1.21191 32.5747L30.788 32.5747" stroke="black" stroke-linecap="round" stroke-linejoin="round"/>
</svg>
