<svg width="31" height="33" viewBox="0 0 31 33" fill="none" xmlns="http://www.w3.org/2000/svg">
<circle cx="16.6804" cy="4.66445" r="3.27773" stroke="black"/>
<path d="M16.7915 8.21997H11.7262C10.6654 8.21997 9.64796 8.6414 8.89781 9.39154L5.1389 13.1505C4.37952 13.9098 4.37952 15.141 5.1389 15.9004V15.9004C5.89828 16.6598 7.12948 16.6598 7.88886 15.9004L11.2916 12.4977M16.7915 8.21997L23.6386 15.0671C24.3367 15.7651 24.3367 16.8968 23.6386 17.5948V17.5948C22.9406 18.2929 21.8089 18.2929 21.1109 17.5948L16.0137 12.4977M16.7915 8.21997L16.0137 12.4977M11.2916 12.4977H13.1805M11.2916 12.4977V17.7754M16.0137 12.4977V15.6185C16.0137 16.6794 16.4352 17.6968 17.1853 18.447L19.0088 20.2704C19.7589 21.0206 20.1804 22.038 20.1804 23.0989V27.053C20.1804 27.6053 19.7326 28.053 19.1804 28.053H17.0137C16.4615 28.053 16.0137 27.6053 16.0137 27.053V24.1544C16.0137 23.0935 15.5923 22.0761 14.8422 21.326L14.0416 20.5254M11.2916 17.7754L6.94511 26.6117C6.61825 27.2762 7.10189 28.053 7.84243 28.053H9.67255C10.0519 28.053 10.3985 27.8384 10.5676 27.4989L14.0416 20.5254M11.2916 17.7754L14.0416 20.5254" stroke="black" stroke-linecap="round" stroke-linejoin="round"/>
<line x1="24.0137" y1="17.3865" x2="24.0137" y2="27.8308" stroke="black" stroke-linecap="round"/>
<line x1="0.56958" y1="31.7617" x2="29.6803" y2="31.7617" stroke="black" stroke-linecap="round"/>
<line x1="0.56958" y1="28.2373" x2="29.6803" y2="28.2373" stroke="black" stroke-linecap="round"/>
</svg>
