<svg width="31" height="33" viewBox="0 0 31 33" fill="none" xmlns="http://www.w3.org/2000/svg">
<g clip-path="url(#clip0_8_58)">
<path d="M16.6803 7.94218C18.4906 7.94218 19.958 6.47469 19.958 4.66445C19.958 2.85421 18.4906 1.38672 16.6803 1.38672C14.8701 1.38672 13.4026 2.85421 13.4026 4.66445C13.4026 6.47469 14.8701 7.94218 16.6803 7.94218Z" stroke="white"/>
<path d="M16.7915 8.21997H11.7262C10.6654 8.21997 9.64793 8.6414 8.89778 9.39154L5.13887 13.1505C4.37949 13.9098 4.37949 15.141 5.13887 15.9004C5.89825 16.6598 7.12945 16.6598 7.88883 15.9004L11.2916 12.4977M16.7915 8.21997L23.6386 15.0671C24.3367 15.7651 24.3367 16.8968 23.6386 17.5948C22.9406 18.2929 21.8089 18.2929 21.1109 17.5948L16.0137 12.4977M16.7915 8.21997L16.0137 12.4977M11.2916 12.4977H13.1805M11.2916 12.4977V17.7754M16.0137 12.4977V15.6185C16.0137 16.6794 16.4352 17.6968 17.1853 18.447L19.0088 20.2704C19.7589 21.0206 20.1804 22.038 20.1804 23.0989V27.053C20.1804 27.6053 19.7326 28.053 19.1804 28.053H17.0137C16.4615 28.053 16.0137 27.6053 16.0137 27.053V24.1544C16.0137 23.0935 15.5923 22.0761 14.8422 21.326L14.0416 20.5254M11.2916 17.7754L6.94508 26.6117C6.61822 27.2762 7.10186 28.053 7.8424 28.053H9.67252C10.0519 28.053 10.3985 27.8384 10.5676 27.4989L14.0416 20.5254M11.2916 17.7754L14.0416 20.5254" stroke="white" stroke-linecap="round" stroke-linejoin="round"/>
<path d="M24.0137 17.3865V27.8308" stroke="white" stroke-linecap="round"/>
<path d="M0.56958 31.7617H29.6803" stroke="white" stroke-linecap="round"/>
<path d="M0.56958 28.2373H29.6803" stroke="white" stroke-linecap="round"/>
</g>
<defs>
<clipPath id="clip0_8_58">
<rect width="31" height="33" fill="white"/>
</clipPath>
</defs>
</svg>
